<svg id="Calque_1" data-name="Calque 1" xmlns="http://www.w3.org/2000/svg" viewBox="0 0 2000 2000"><defs><style>.cls-1{font-size:364.94px;fill:#f3f3f3;letter-spacing:-0.08em;}.cls-1,.cls-4{font-family:OpenSans-Light, Open Sans;font-weight:300;}.cls-2{fill:#ff6b6b;font-size:182.47px;letter-spacing:-0.08em;}.cls-3{font-size:729.88px;fill:#4ecdc4;font-family:OpenSans-Regular, Open Sans;font-weight:400;letter-spacing:0.1em;}.cls-4{font-size:148.36px;}.cls-4,.cls-5{fill:#292f36;}</style></defs><title>logo</title><text class="cls-1" transform="translate(264.45 761.56)"><tspan xml:space="preserve">                  </tspan><tspan class="cls-2" x="1213.71" y="0">DU </tspan><tspan class="cls-3"><tspan x="-120.22" y="638.64">WEB</tspan></tspan></text><text class="cls-4" transform="translate(689.25 1677.37)">BY</text><path class="cls-5" d="M1110.74,1625.17c0-5.73-.13-11.45,0-17.17.22-7.55,2-14.68,6.75-20.75a36.21,36.21,0,0,1,4.19-4.21c1.88-1.71,2-3.68.18-5.42a31.39,31.39,0,0,1-10.11-24.09c0-5.9,0-11.8,0-17.7a42.71,42.71,0,0,1,3-15.71,30.91,30.91,0,0,1,21.37-18.85,46,46,0,0,1,27.07.48c12.4,4.1,19.4,13,22,25.58a40.64,40.64,0,0,1,.71,5.72,2.56,2.56,0,0,1-2.86,3q-8.4,0-16.82,0c-1.87,0-2.69-.82-3-2.72-.14-1-.25-2-.47-2.93-1.74-8-7.56-10.59-15.65-9.9a17.8,17.8,0,0,0-7.08,2.16c-3.65,2.07-5.08,5.85-5.21,9.79-.25,7.64-.33,15.31,0,22.94s5.31,11.94,12.8,12a26.6,26.6,0,0,0,5-.24c6-1.07,9.07-4.24,10.21-10.19.52-2.7,1.14-3.24,3.83-3.24h15.59c2.87,0,3.85.94,3.58,3.82a29.62,29.62,0,0,1-8.37,18.6c-3.89,4-3.9,4.38.12,8.13,5.26,4.92,7.91,11.17,8.93,18.15a71.39,71.39,0,0,1,.61,9.59q.1,13.76,0,27.51a50,50,0,0,1-2.16,15.7c-3.22,9.7-9.56,16.51-19.18,19.92a48.46,48.46,0,0,1-33.43,0c-12.23-4.41-19.17-13.55-20.87-26.2-1-7.82-.8-15.83-1.14-23.75Zm52.2.9h-.34c0-5.72.32-11.46-.09-17.14a11.16,11.16,0,0,0-8.18-10.31,17.18,17.18,0,0,0-9.32-.41c-6.17,1.41-9.87,6.2-9.9,12.9,0,9.7,0,19.39,0,29.09,0,8.14,4.1,13,12.18,13.87,7,.76,13.47-2,15.17-10.17a25.6,25.6,0,0,0,.47-4.87C1163,1634.71,1162.94,1630.39,1162.94,1626.07Z"/><path class="cls-5" d="M940.16,1536.89c-2.2,2.32-4.37,4.68-6.62,6.95-2.71,2.75-5.5,5.41-8.2,8.15-1,1-2.07,1.58-3.43,1s-1.48-1.8-1.48-3.1c0-6.83-.07-13.66.08-20.49a6.34,6.34,0,0,1,1.56-3.88q10.23-10.82,20.76-21.35a6.3,6.3,0,0,1,3.86-1.58c4.14-.2,8.29-.08,12.44-.07,3,0,4.6,1.65,4.61,4.69,0,4.32,0,8.64,0,13V1628.6c0,4.46-1.66,6.13-6.11,6.13H946.24c-3.67,0-5.49-1.84-5.49-5.47v-92Z"/><path class="cls-5" d="M1018.3,1613c2.26,0,4.23,0,6.21,0,3.09,0,4.46,1.43,4.47,4.53q0,6.39,0,12.79c0,3-1.37,4.37-4.41,4.38q-13.48,0-27,0c-3.69,0-5.69-2-5.73-5.75,0-.12,0-.24,0-.35-1.27-9.36,2.11-17.72,5.3-26.21,12-31.89,23.82-63.85,35.71-95.78,1.2-3.21,2.49-4.13,5.86-4.13,4.85,0,9.7.17,14.54-.07,3.27-.16,5,2.44,3.81,5.56-5.34,14.11-10.49,28.28-15.72,42.43L1019,1611.07Z"/><path class="cls-5" d="M1047.23,1635.76q0-16.9,0-33.81c0-3.93,1.22-5.15,5.1-5.15H1066c3.38,0,4.68,1.3,4.69,4.61,0,3.16.08,6.31,0,9.46-.07,1.64.36,2.27,2.1,2.19,2.92-.14,5.84,0,8.76,0,3.27,0,4.58,1.32,4.59,4.54,0,5,0,9.93,0,14.89,0,2.88-1.3,4.17-4.16,4.19s-6,0-8.93,0c-2.33,0-2.33,0-2.33,2.26v31.18c0,3.25-1.16,4.41-4.43,4.41h-14c-3.92,0-5-1.06-5-5Q1047.22,1652.67,1047.23,1635.76Z"/><path class="cls-5" d="M949.61,1674.51H927.89c-3.69,0-5.36-1.68-5.37-5.32v-11c0-3.35,1.8-5.16,5.21-5.16q17.07,0,34.15,0c3.27,0,6.54,0,9.81,0s5.21,1.85,5.24,5.19c0,3.74,0,7.47,0,11.21,0,3.36-1.84,5.12-5.25,5.13Z"/><path class="cls-5" d="M1010,474.65v0Z"/><path class="cls-5" d="M294.59,444.5q-3-16.38-6.95-20.36-3-2-10.93-3H231.54q-11.91,0-16.38,3.47t-6.46,15.89q-8.44,49.14-23.83,139.74t-27.8,162.58c-1.32,7.94-2,13.08-2,15.39q0,9.43,10.42,9.93l17.38.49,21.35-.49q10.42,0,12.41-10.92L223.6,717q1.49-12.91,4.22-18.12a12.77,12.77,0,0,1,8.43-6.71q5.72-1.49,20.11-1.49l4,.5q10.92.49,14.4,9.43a73.36,73.36,0,0,1,4.47,19.86q.48,1.49,2.48,17.38c1.32,9.92,2.31,16.55,3,19.85a12.46,12.46,0,0,0,4,7.45c2,2,5.29,3.15,9.93,3.47h15.88q24.82,0,27.8-3c2.31-2,3.48-6,3.48-11.92a94,94,0,0,0-1.49-14.89Zm-33,188.64a30.74,30.74,0,0,1-10.17,1.49,29,29,0,0,1-9.68-1.49c-2.82-1-4.22-2.31-4.22-4a34.28,34.28,0,0,1,.49-6.46q2-29.78,7.94-45.67a6.08,6.08,0,0,1,5.47-3.47q3,0,5,3.47a24.75,24.75,0,0,1,3,7.45l2,10.42q1,5,2.24,12.17t2.23,14.15l.5,8.43C266,631,264.38,632.15,261.57,633.14Z"/><path class="cls-5" d="M412.14,554.12H444.8c5.68-.59,8.36-5.37,9.63-9.83V523.43q0-20.35,6.7-33t20.6-12.66q10.92,0,18.37,9.43A36.09,36.09,0,0,1,508,508.54q.49,14.4.75,22.83t2,9.93c1.16,1,4.05,1.66,8.69,2l17.38.49,17.37-.49q6.94-.49,9.68-4.47t2.48-12.16c-.17-5.46-.25-9.19-.25-11.17a142.75,142.75,0,0,1,.5-15.39q1.49-26.31-16.38-50.14-22.85-29.29-57.59-30.28H474.78a68,68,0,0,0-38.72,11.66,78.79,78.79,0,0,0-26.81,30.28q-9.44,18.61-9.43,37.48l.12,43.81C400.84,555.94,412.14,554.12,412.14,554.12Z"/><path class="cls-5" d="M566.62,592.43q0-10.9-.5-15.14a11.85,11.85,0,0,0-3.47-7.2c-2-2-5-3-8.94-3q-4.46-.48-26.8-.49-28.3,0-32.77.49-11.42.51-12.41,11.92-.5,3-.49,30.78,0,13.4,11.91,14.89,10.92,1.49,12.41,10.43a134.33,134.33,0,0,1,3,28.29,181.06,181.06,0,0,1-2.48,27.3,12.1,12.1,0,0,0-1.49,3.48,29.29,29.29,0,0,1-10.43,11.42,24.43,24.43,0,0,1-12.9,4,21.7,21.7,0,0,1-13.9-4.72q-6-4.71-8.94-14.15-4-11.4-4-28.29v-61c-1.62-4.62-5.42-10.3-14.32-11.59H414s-11.42,1.6-13.9,18.14l.22,82.23q0,18.38,3.47,26.81,11.41,26.81,33.26,40.7a85.36,85.36,0,0,0,46.67,13.9q29.77,0,52.62-18.37,19.36-15.87,25.32-32t6-48.9q0-17.88-.49-28.8Z"/><path class="cls-5" d="M683.77,481q4.47-4.2,16.38-4.71H749.3q14.38,0,19.86-1.49t6-9.43q.5-4.47.5-16.38,0-20.85-3.48-24.33-4.46-3.47-20.35-3.47H644.55q-13.39,0-17.87,1.24a7.77,7.77,0,0,0-5.71,5.95q-1.25,4.72-1.24,18.62V735.9q0,16.88.5,21.59a10.29,10.29,0,0,0,3.47,7.2,15.54,15.54,0,0,0,7.7,3.23,80.29,80.29,0,0,0,12.16.74H751.28c8,0,13.73-.49,17.38-1.49s5.62-4.13,6-9.43q1-6.43,1-20.35,0-10.92-.5-16.88c-.33-3.64-1.73-6.2-4.22-7.69s-6.29-2.32-11.41-2.49-8.69-.24-10.68-.24H700.15q-11.91-.5-16.38-5t-5.46-16.38l-.5-18.37q0-8.43,1-22.34.48-15.37,5.21-19.61c3.14-2.8,9.68-4.22,19.61-4.22q25.8,0,33.26-.49,10.9-1,10.92-10.92,1-11.92,1-18.37l-.49-12.91c-.34-6-1.49-10-3.48-12.16s-6-3.23-11.91-3.23q-4.47-.48-24.33-.5a99.1,99.1,0,0,1-16.13-1,18.67,18.67,0,0,1-9.19-4q-4.46-5.46-4.46-14.4-1-18.85-1-28.29l.5-20.85Q679.3,485.21,683.77,481Z"/><path class="cls-5" d="M993.54,528.26H965.8s-12.75,1.67-14.95,19.38v15a66.55,66.55,0,0,1-.5,8.68,55.83,55.83,0,0,1-2,8.69,7.39,7.39,0,0,1-2,3.48A4.79,4.79,0,0,1,942.9,585c-2.65,0-4.46-1.32-5.46-4l-3-7.44q-6-20.36-31.27-105.24-1-5-5.46-18.87l-6-18.86c-2-7-6.13-10.43-12.41-10.43H832.2c-5,.34-7.94,2.48-8.94,6.46s-1.49,11.09-1.49,21.34V748.31a42.07,42.07,0,0,0,2,13.4q2,6,11.42,6.95h17.37q15.39,0,20.61-1.24t6.45-5.95q1.23-4.72,1.24-19.61V634.13q0-15.89,2-21.34,2.48-5.46,6.45-5.46,3,0,5.46,4l6,16.38,36.73,114.18,2.48,6.95c.66,2,1.49,4.64,2.49,7.94q4,12.42,26.31,12.41,24.31,0,30.53-.74t8.44-6c1.49-3.48,2.23-10.5,2.23-21.1V544.66C1009.45,540.72,1006.92,530.08,993.54,528.26Z"/><path class="cls-5" d="M963.81,492.52h34.71c9.89-1,11.22-13.17,11.4-16.83V445q0-12.9-1.24-18.36t-8.19-6q-7.46-1-23.83-1-13.41,0-18.12,1.24a7.84,7.84,0,0,0-6,5.95q-1.25,4.72-1.24,18.12,0,6-.25,35.5c0,.62,0,1.27,0,1.91C952.59,494.24,963.81,492.52,963.81,492.52Z"/><path class="cls-5" d="M997.25,492.59c.23,0,.45,0,.67,0C993.61,492.57,991.15,492.59,997.25,492.59Z"/><path class="cls-5" d="M1147.89,571.48h-31.18s-9.25,1.55-11.48,17.45V741.36c0,1.66-.09,4.89-.25,9.68a29.78,29.78,0,0,0,1.74,12.16q2,5,9.43,5.46,6,.5,18.37.5t18.86-.5q5.46-.48,7.95-4.46t2.48-13.41V585.35C1162.62,580.55,1159,573,1147.89,571.48Z"/><path class="cls-5" d="M1211.47,422.16q-4.47-1-17.38-1H1075q-3.48,0-7.45-.25a42.16,42.16,0,0,0-7.94.25,9.93,9.93,0,0,0-6,2.48c-2,2-3,4.8-3,8.44l-.49,16.88.49,16.38q.5,7.44,3.48,9.93t10.42,3c1.32.34,5.13.5,11.42.5a96.35,96.35,0,0,1,15.64,1,14.1,14.1,0,0,1,12.91,13.16q.73,5.21.74,19.61V527c2.28,10.27,12.94,8.7,12.94,8.7h34.71c7.41-.73,10-7.76,10.93-12.78v-5.49q0-17.87.74-23.83a14.41,14.41,0,0,1,4.72-9.43q5.46-5.46,21.84-5.46h7.2a92.53,92.53,0,0,0,9.93-.5,11.48,11.48,0,0,0,7.2-3q2.47-3.48,2.48-9.44c.32-2.64.5-9.75.5-21.34q0-12.4-1.25-16.88A7.16,7.16,0,0,0,1211.47,422.16Z"/><path class="cls-5" d="M1151.6,535.81c.24,0,.46,0,.68,0C1148,535.79,1145.51,535.81,1151.6,535.81Z"/><path class="cls-5" d="M1398.12,602.86q-4-4.47-29.79-28.3-24.82-21.84-30.77-29.78-18.88-20.85-18.87-45.18a53.48,53.48,0,0,1,.5-8.44q1.49-10.91,7.94-17.37a20.46,20.46,0,0,1,14.89-6.46,22.33,22.33,0,0,1,12.66,4.22q6.21,4.23,10.18,12.66l5,12.91q3,8,11.92,7.94,17.37,0,38.22-6.95,6.45-2,6.46-8.44v-2.48a97.23,97.23,0,0,0-24.33-53.12q-20.35-22.83-56.1-22.83a113.28,113.28,0,0,0-30.28,4q-26.31,6.45-42.94,29t-16.63,54.36q0,45.18,32.77,80.42l44.67,44.18L1345,634.63q14.89,14.4,19.86,23.08t4.47,25.57a29.83,29.83,0,0,1-8.69,21.1q-8.7,9.18-19.61,9.18-13.9,0-23.83-17.37a68.39,68.39,0,0,1-5-13.9,39.54,39.54,0,0,0-1-4,7.85,7.85,0,0,1-.5-2.48q-2.49-7.94-5.71-10.67t-10.67-2.24q-7,0-33.26,4c-5.64.66-8.44,5-8.44,12.9a49.32,49.32,0,0,0,.49,8.44q4,25.32,21.35,52.13,5.46,8.45,18.86,16.88,21.35,12.91,49.15,11.41a122.67,122.67,0,0,1,12.41-.49q14.4-.49,21.6-2a41.88,41.88,0,0,0,14.64-6.45q7.44-5,16.88-15.89,16.86-19.85,19.85-43.19a110.61,110.61,0,0,0,1.49-18.36Q1429.39,638.61,1398.12,602.86Z"/><path class="cls-5" d="M444.24,554.16c-4.05,0-6.37,0-.64,0Z"/></svg>